<svg xmlns="http://www.w3.org/2000/svg" width="50" height="50" viewBox="0 0 50 50"><defs><style>.a{fill:#f6d738;}.b{fill:#f3cc30;}.c{fill:#edbd31;}.d{fill:#f7db5e;}.e{fill:#d49a34;}</style></defs><g transform="translate(-240 -64)"><circle class="a" cx="25" cy="25" r="25" transform="translate(240 64)"/><circle class="b" cx="21.391" cy="21.391" r="21.391" transform="translate(243.314 67.314)"/><path class="c" d="M392.243,331.017a21.394,21.394,0,0,1-29.217,29.754,21.393,21.393,0,1,0,29.217-29.754Z" transform="translate(-116.347 -260.57)"/><path class="d" d="M351.536,342.33a18.882,18.882,0,0,1,33.851-11.511,18.884,18.884,0,1,0-31.342,20.922A18.8,18.8,0,0,1,351.536,342.33Z" transform="translate(-104.475 -251.668)"/><path class="e" d="M511.4,387.082v2.725a5.739,5.739,0,0,1,2.683,1.085,8.309,8.309,0,0,1,1.988,2.517l-2.711,1.516a3.627,3.627,0,0,0-3.2-2.225,2.927,2.927,0,0,0-2.03.723,2.326,2.326,0,0,0-.806,1.807,2.224,2.224,0,0,0,.653,1.641,9.462,9.462,0,0,0,2.586,1.516,25.9,25.9,0,0,1,2.781,1.439,7.42,7.42,0,0,1,1.654,1.3,5.82,5.82,0,0,1,1.571,4.1,6.567,6.567,0,0,1-1.418,4.171,6.862,6.862,0,0,1-3.754,2.419v2.878h-2.433V411.9a7.4,7.4,0,0,1-4.157-1.877,8.963,8.963,0,0,1-2.113-4.421l3.059-.64a7.153,7.153,0,0,0,1.529,3.017,3.59,3.59,0,0,0,2.517.862,3.55,3.55,0,0,0,2.558-.987,3.331,3.331,0,0,0,1.015-2.516,2.962,2.962,0,0,0-.848-2.211,7.86,7.86,0,0,0-1.272-.911,21.867,21.867,0,0,0-2.148-1.105,10.39,10.39,0,0,1-3.545-2.225,5.566,5.566,0,0,1-1.029-5.492,5.1,5.1,0,0,1,.924-1.564,5.748,5.748,0,0,1,1.495-1.217,8.046,8.046,0,0,1,2.016-.806v-2.725Z" transform="translate(-244.927 -312.184)"/></g></svg>